<svg xmlns="http://www.w3.org/2000/svg" xmlns:xlink="http://www.w3.org/1999/xlink" width="273" zoomAndPan="magnify" viewBox="0 0 204.75 34.499999" height="46" preserveAspectRatio="xMidYMid meet" version="1.0"><defs><g/><clipPath id="cfaa1dc015"><path d="M 1.339844 5 L 7 5 L 7 8 L 1.339844 8 Z M 1.339844 5 " clip-rule="nonzero"/></clipPath><clipPath id="0548d79e42"><path d="M 1.339844 7 L 7 7 L 7 9 L 1.339844 9 Z M 1.339844 7 " clip-rule="nonzero"/></clipPath><clipPath id="691c01fdfd"><path d="M 11 7 L 16.863281 7 L 16.863281 9 L 11 9 Z M 11 7 " clip-rule="nonzero"/></clipPath><clipPath id="c19cb127bb"><path d="M 11 8 L 16.863281 8 L 16.863281 11 L 11 11 Z M 11 8 " clip-rule="nonzero"/></clipPath><clipPath id="aff36c5b0d"><path d="M 10 10 L 15 10 L 15 15.523438 L 10 15.523438 Z M 10 10 " clip-rule="nonzero"/></clipPath><clipPath id="e75bb8b54b"><path d="M 7 10 L 11 10 L 11 15.523438 L 7 15.523438 Z M 7 10 " clip-rule="nonzero"/></clipPath></defs><g fill="#191f23" fill-opacity="1"><g transform="translate(18.588099, 12.040708)"><g><path d="M 1.628906 0 L 5.488281 0 C 8.917969 0 11.214844 -2.28125 11.214844 -5.582031 C 11.214844 -8.886719 8.917969 -11.164062 5.488281 -11.164062 L 1.628906 -11.164062 Z M 3.03125 -1.339844 L 3.03125 -9.824219 L 5.421875 -9.824219 C 8.023438 -9.824219 9.777344 -8.121094 9.777344 -5.582031 C 9.777344 -3.046875 8.039062 -1.339844 5.488281 -1.339844 Z M 3.03125 -1.339844 "/></g></g></g><g fill="#191f23" fill-opacity="1"><g transform="translate(30.724934, 12.040708)"><g><path d="M 5.074219 0.207031 C 6.9375 0.207031 8.46875 -0.796875 9.140625 -2.410156 L 7.625 -2.410156 C 7.113281 -1.53125 6.171875 -1.054688 5.089844 -1.054688 C 3.507812 -1.054688 2.394531 -2.042969 2.183594 -3.605469 L 9.347656 -3.605469 C 9.441406 -6.492188 7.734375 -8.484375 5.089844 -8.484375 C 2.585938 -8.484375 0.828125 -6.699219 0.828125 -4.148438 C 0.828125 -1.578125 2.566406 0.207031 5.074219 0.207031 Z M 2.203125 -4.785156 C 2.441406 -6.253906 3.558594 -7.226562 5.089844 -7.226562 C 6.605469 -7.226562 7.71875 -6.300781 8.007812 -4.785156 Z M 2.203125 -4.785156 "/></g></g></g><g fill="#191f23" fill-opacity="1"><g transform="translate(40.86821, 12.040708)"><g><path d="M 3.875 0 L 5.167969 0 L 8.804688 -8.277344 L 7.351562 -8.277344 L 6.203125 -5.664062 L 4.53125 -1.785156 L 2.839844 -5.664062 L 1.707031 -8.277344 L 0.253906 -8.277344 Z M 3.875 0 "/></g></g></g><g fill="#ff7000" fill-opacity="1"><g transform="translate(49.940252, 12.040708)"><g><path d="M 1.628906 0 L 3.03125 0 L 3.03125 -3.667969 L 5.40625 -3.667969 C 7.929688 -3.667969 9.554688 -5.121094 9.554688 -7.417969 C 9.554688 -9.699219 7.929688 -11.164062 5.40625 -11.164062 L 1.628906 -11.164062 Z M 3.03125 -4.976562 L 3.03125 -9.824219 L 5.375 -9.824219 C 7.179688 -9.824219 8.121094 -8.996094 8.121094 -7.402344 C 8.121094 -5.804688 7.179688 -4.976562 5.375 -4.976562 Z M 3.03125 -4.976562 "/></g></g></g><g fill="#ff7000" fill-opacity="1"><g transform="translate(60.13137, 12.040708)"><g><path d="M 1.484375 0 L 2.824219 0 L 2.824219 -8.277344 L 1.484375 -8.277344 Z M 1.070312 -10.6875 C 1.070312 -10.097656 1.5 -9.652344 2.152344 -9.652344 C 2.808594 -9.652344 3.222656 -10.097656 3.222656 -10.6875 C 3.222656 -11.292969 2.808594 -11.738281 2.152344 -11.738281 C 1.5 -11.738281 1.070312 -11.292969 1.070312 -10.6875 Z M 1.070312 -10.6875 "/></g></g></g><g fill="#ff7000" fill-opacity="1"><g transform="translate(64.437481, 12.040708)"><g><path d="M 1.484375 0 L 2.824219 0 L 2.824219 -4.179688 C 2.824219 -5.996094 3.925781 -7.210938 5.472656 -7.210938 C 6.921875 -7.210938 7.816406 -6.15625 7.816406 -4.480469 L 7.816406 0 L 9.15625 0 L 9.15625 -4.609375 C 9.15625 -6.96875 7.847656 -8.484375 5.648438 -8.484375 C 4.53125 -8.484375 3.445312 -8.054688 2.726562 -7.066406 L 2.585938 -8.277344 L 1.484375 -8.277344 Z M 1.484375 0 "/></g></g></g><g fill="#ff7000" fill-opacity="1"><g transform="translate(74.915673, 12.040708)"><g><path d="M 5.183594 3.398438 C 7.65625 3.398438 9.269531 1.867188 9.269531 -0.480469 L 9.269531 -8.277344 L 8.167969 -8.277344 L 8.023438 -7.160156 C 7.289062 -7.992188 6.203125 -8.484375 4.960938 -8.484375 C 2.601562 -8.484375 0.828125 -6.699219 0.828125 -4.289062 C 0.828125 -1.867188 2.601562 -0.078125 4.960938 -0.078125 C 6.15625 -0.078125 7.195312 -0.542969 7.929688 -1.308594 L 7.929688 -0.527344 C 7.929688 1.179688 6.921875 2.152344 5.183594 2.152344 C 3.828125 2.152344 2.886719 1.53125 2.632812 0.527344 L 1.277344 0.527344 C 1.578125 2.296875 3.078125 3.398438 5.183594 3.398438 Z M 2.167969 -4.289062 C 2.167969 -5.980469 3.398438 -7.195312 5.105469 -7.195312 C 6.828125 -7.195312 8.039062 -5.980469 8.039062 -4.289062 C 8.039062 -2.585938 6.828125 -1.386719 5.105469 -1.386719 C 3.398438 -1.386719 2.167969 -2.585938 2.167969 -4.289062 Z M 2.167969 -4.289062 "/></g></g></g><g fill="#ff7000" fill-opacity="1"><g transform="translate(85.664992, 12.040708)"><g><path d="M 4.785156 0.207031 C 5.886719 0.207031 6.953125 -0.238281 7.671875 -1.210938 L 7.816406 0 L 8.917969 0 L 8.917969 -8.277344 L 7.578125 -8.277344 L 7.578125 -4.097656 C 7.578125 -2.296875 6.507812 -1.085938 4.960938 -1.085938 C 3.542969 -1.085938 2.664062 -2.136719 2.664062 -3.796875 L 2.664062 -8.277344 L 1.324219 -8.277344 L 1.324219 -3.667969 C 1.324219 -1.308594 2.617188 0.207031 4.785156 0.207031 Z M 4.785156 0.207031 "/></g></g></g><path fill="#ff7000" d="M 8.394531 0 C 7.652344 1.070312 8.390625 3.894531 8.554688 5.175781 L 9.179688 5.019531 C 9.003906 3.636719 9.167969 1.132812 8.394531 0 Z M 8.394531 0 " fill-opacity="1" fill-rule="nonzero"/><path fill="#ff7000" d="M 10.433594 0.15625 L 9.335938 5.019531 L 9.964844 5.175781 L 10.90625 0.3125 Z M 10.433594 0.15625 " fill-opacity="1" fill-rule="nonzero"/><path fill="#ff7000" d="M 5.886719 0.785156 L 7.613281 5.332031 L 4.632812 1.726562 L 4.003906 1.882812 L 6.984375 5.960938 L 2.75 3.292969 L 2.59375 3.921875 L 6.828125 6.585938 L 7.613281 5.332031 L 8.394531 5.175781 L 6.515625 0.628906 Z M 5.886719 0.785156 " fill-opacity="1" fill-rule="nonzero"/><path fill="#ff7000" d="M 12.472656 0.785156 L 10.121094 5.332031 C 11.214844 5.496094 13.214844 1.628906 12.472656 0.785156 Z M 12.472656 0.785156 " fill-opacity="1" fill-rule="nonzero"/><path fill="#ff7000" d="M 10.90625 5.960938 C 12.316406 5.660156 14.019531 3.5 14.824219 2.351562 C 13.511719 2.242188 11.242188 4.753906 10.90625 5.960938 Z M 10.90625 5.960938 " fill-opacity="1" fill-rule="nonzero"/><g clip-path="url(#cfaa1dc015)"><path fill="#ff7000" d="M 1.808594 5.332031 L 1.652344 5.800781 C 2.980469 6.5 5.015625 7.144531 6.515625 7.214844 C 6.109375 6.046875 2.945312 5.566406 1.808594 5.332031 Z M 1.808594 5.332031 " fill-opacity="1" fill-rule="nonzero"/></g><g clip-path="url(#0548d79e42)"><path fill="#ff7000" d="M 1.339844 7.527344 L 1.339844 8.15625 L 6.359375 8.15625 L 6.359375 7.527344 Z M 1.339844 7.527344 " fill-opacity="1" fill-rule="nonzero"/></g><g clip-path="url(#691c01fdfd)"><path fill="#ff7000" d="M 11.847656 8.15625 L 16.863281 7.996094 L 16.863281 7.683594 C 15.867188 7.390625 12.21875 7.027344 11.847656 8.15625 Z M 11.847656 8.15625 " fill-opacity="1" fill-rule="nonzero"/></g><g clip-path="url(#c19cb127bb)"><path fill="#ff7000" d="M 11.6875 8.46875 C 12.097656 9.636719 15.257812 10.117188 16.394531 10.351562 L 16.550781 10.191406 L 16.550781 9.878906 C 15.214844 9.179688 13.195312 8.535156 11.6875 8.46875 Z M 11.6875 8.46875 " fill-opacity="1" fill-rule="nonzero"/></g><path fill="#ff7000" d="M 11.53125 9.09375 L 11.21875 9.722656 L 15.453125 12.390625 L 15.609375 11.761719 Z M 11.53125 9.09375 " fill-opacity="1" fill-rule="nonzero"/><path fill="#ff7000" d="M 3.535156 13.328125 L 3.691406 13.488281 L 7.457031 10.191406 C 6.445312 9.265625 3.957031 12.425781 3.535156 13.328125 Z M 3.535156 13.328125 " fill-opacity="1" fill-rule="nonzero"/><g clip-path="url(#aff36c5b0d)"><path fill="#ff7000" d="M 11.6875 15.054688 L 12.316406 15.054688 L 10.589844 10.191406 L 10.75 10.191406 C 11.390625 11.441406 12.761719 13.347656 14.042969 13.957031 L 14.199219 13.800781 C 13.691406 12.660156 12.46875 11.03125 11.488281 10.25 C 11.066406 9.917969 10.273438 9.992188 10.074219 10.566406 C 9.722656 11.589844 11.398438 13.996094 11.6875 15.054688 Z M 11.6875 15.054688 " fill-opacity="1" fill-rule="nonzero"/></g><path fill="#ff7000" d="M 7.457031 10.191406 C 7.015625 11.246094 4.871094 13.972656 5.730469 14.898438 L 8.082031 10.351562 Z M 7.457031 10.191406 " fill-opacity="1" fill-rule="nonzero"/><g clip-path="url(#e75bb8b54b)"><path fill="#ff7000" d="M 8.238281 10.507812 L 7.457031 15.523438 C 8.894531 15.105469 8.097656 11.773438 9.179688 10.820312 C 9.179688 11.824219 9.035156 15.207031 10.121094 15.523438 C 10.121094 14.515625 10.324219 11.554688 9.644531 10.792969 C 9.371094 10.484375 8.621094 10.546875 8.238281 10.507812 Z M 8.238281 10.507812 " fill-opacity="1" fill-rule="nonzero"/></g></svg>