<svg xmlns="http://www.w3.org/2000/svg" xmlns:xlink="http://www.w3.org/1999/xlink" width="273" zoomAndPan="magnify" viewBox="0 0 204.75 34.499999" height="46" preserveAspectRatio="xMidYMid meet" version="1.0"><defs><g/><clipPath id="7e086a7640"><path d="M 1.339844 5 L 7 5 L 7 8 L 1.339844 8 Z M 1.339844 5 " clip-rule="nonzero"/></clipPath><clipPath id="48b97be185"><path d="M 1.339844 7 L 7 7 L 7 9 L 1.339844 9 Z M 1.339844 7 " clip-rule="nonzero"/></clipPath><clipPath id="27b601a324"><path d="M 11 7 L 16.863281 7 L 16.863281 9 L 11 9 Z M 11 7 " clip-rule="nonzero"/></clipPath><clipPath id="eeafbcd15c"><path d="M 11 8 L 16.863281 8 L 16.863281 11 L 11 11 Z M 11 8 " clip-rule="nonzero"/></clipPath><clipPath id="19e10e11d8"><path d="M 10 10 L 15 10 L 15 15.523438 L 10 15.523438 Z M 10 10 " clip-rule="nonzero"/></clipPath><clipPath id="d8254a42d4"><path d="M 7 10 L 11 10 L 11 15.523438 L 7 15.523438 Z M 7 10 " clip-rule="nonzero"/></clipPath></defs><g fill="#ffffff" fill-opacity="1"><g transform="translate(18.614449, 11.004361)"><g><path d="M 1.625 0 L 5.484375 0 C 8.914062 0 11.210938 -2.28125 11.210938 -5.582031 C 11.210938 -8.882812 8.914062 -11.164062 5.484375 -11.164062 L 1.625 -11.164062 Z M 3.03125 -1.339844 L 3.03125 -9.824219 L 5.421875 -9.824219 C 8.019531 -9.824219 9.773438 -8.117188 9.773438 -5.582031 C 9.773438 -3.046875 8.035156 -1.339844 5.484375 -1.339844 Z M 3.03125 -1.339844 "/></g></g></g><g fill="#ffffff" fill-opacity="1"><g transform="translate(30.745475, 11.004361)"><g><path d="M 5.070312 0.207031 C 6.9375 0.207031 8.46875 -0.796875 9.136719 -2.40625 L 7.621094 -2.40625 C 7.113281 -1.53125 6.171875 -1.050781 5.085938 -1.050781 C 3.507812 -1.050781 2.390625 -2.042969 2.183594 -3.605469 L 9.34375 -3.605469 C 9.441406 -6.488281 7.734375 -8.484375 5.085938 -8.484375 C 2.582031 -8.484375 0.828125 -6.699219 0.828125 -4.144531 C 0.828125 -1.578125 2.566406 0.207031 5.070312 0.207031 Z M 2.199219 -4.785156 C 2.441406 -6.25 3.554688 -7.222656 5.085938 -7.222656 C 6.601562 -7.222656 7.71875 -6.296875 8.003906 -4.785156 Z M 2.199219 -4.785156 "/></g></g></g><g fill="#ffffff" fill-opacity="1"><g transform="translate(40.883895, 11.004361)"><g><path d="M 3.875 0 L 5.167969 0 L 8.800781 -8.277344 L 7.351562 -8.277344 L 6.203125 -5.660156 L 4.527344 -1.785156 L 2.839844 -5.660156 L 1.707031 -8.277344 L 0.253906 -8.277344 Z M 3.875 0 "/></g></g></g><g fill="#ff7000" fill-opacity="1"><g transform="translate(49.941679, 11.004361)"><g><path d="M 1.625 0 L 3.03125 0 L 3.03125 -3.667969 L 5.40625 -3.667969 C 7.925781 -3.667969 9.550781 -5.117188 9.550781 -7.414062 C 9.550781 -9.695312 7.925781 -11.164062 5.40625 -11.164062 L 1.625 -11.164062 Z M 3.03125 -4.976562 L 3.03125 -9.824219 L 5.375 -9.824219 C 7.175781 -9.824219 8.117188 -8.992188 8.117188 -7.398438 C 8.117188 -5.804688 7.175781 -4.976562 5.375 -4.976562 Z M 3.03125 -4.976562 "/></g></g></g><g fill="#ff7000" fill-opacity="1"><g transform="translate(60.127917, 11.004361)"><g><path d="M 1.484375 0 L 2.824219 0 L 2.824219 -8.277344 L 1.484375 -8.277344 Z M 1.070312 -10.683594 C 1.070312 -10.09375 1.5 -9.648438 2.152344 -9.648438 C 2.804688 -9.648438 3.222656 -10.09375 3.222656 -10.683594 C 3.222656 -11.289062 2.804688 -11.738281 2.152344 -11.738281 C 1.5 -11.738281 1.070312 -11.289062 1.070312 -10.683594 Z M 1.070312 -10.683594 "/></g></g></g><g fill="#ff7000" fill-opacity="1"><g transform="translate(64.431964, 11.004361)"><g><path d="M 1.484375 0 L 2.824219 0 L 2.824219 -4.179688 C 2.824219 -5.996094 3.921875 -7.207031 5.46875 -7.207031 C 6.921875 -7.207031 7.8125 -6.15625 7.8125 -4.480469 L 7.8125 0 L 9.152344 0 L 9.152344 -4.609375 C 9.152344 -6.96875 7.84375 -8.484375 5.644531 -8.484375 C 4.527344 -8.484375 3.445312 -8.054688 2.726562 -7.0625 L 2.582031 -8.277344 L 1.484375 -8.277344 Z M 1.484375 0 "/></g></g></g><g fill="#ff7000" fill-opacity="1"><g transform="translate(74.905136, 11.004361)"><g><path d="M 5.183594 3.398438 C 7.652344 3.398438 9.265625 1.867188 9.265625 -0.476562 L 9.265625 -8.277344 L 8.164062 -8.277344 L 8.019531 -7.160156 C 7.289062 -7.988281 6.203125 -8.484375 4.960938 -8.484375 C 2.597656 -8.484375 0.828125 -6.699219 0.828125 -4.289062 C 0.828125 -1.867188 2.597656 -0.078125 4.960938 -0.078125 C 6.15625 -0.078125 7.191406 -0.542969 7.925781 -1.308594 L 7.925781 -0.527344 C 7.925781 1.179688 6.921875 2.152344 5.183594 2.152344 C 3.828125 2.152344 2.886719 1.53125 2.632812 0.527344 L 1.277344 0.527344 C 1.578125 2.296875 3.078125 3.398438 5.183594 3.398438 Z M 2.167969 -4.289062 C 2.167969 -5.980469 3.398438 -7.191406 5.101562 -7.191406 C 6.824219 -7.191406 8.035156 -5.980469 8.035156 -4.289062 C 8.035156 -2.582031 6.824219 -1.386719 5.101562 -1.386719 C 3.398438 -1.386719 2.167969 -2.582031 2.167969 -4.289062 Z M 2.167969 -4.289062 "/></g></g></g><g fill="#ff7000" fill-opacity="1"><g transform="translate(85.649303, 11.004361)"><g><path d="M 4.785156 0.207031 C 5.882812 0.207031 6.953125 -0.238281 7.671875 -1.210938 L 7.8125 0 L 8.914062 0 L 8.914062 -8.277344 L 7.574219 -8.277344 L 7.574219 -4.097656 C 7.574219 -2.296875 6.507812 -1.085938 4.960938 -1.085938 C 3.539062 -1.085938 2.664062 -2.136719 2.664062 -3.796875 L 2.664062 -8.277344 L 1.324219 -8.277344 L 1.324219 -3.667969 C 1.324219 -1.308594 2.613281 0.207031 4.785156 0.207031 Z M 4.785156 0.207031 "/></g></g></g><path fill="#ff7000" d="M 8.394531 0 C 7.652344 1.070312 8.390625 3.894531 8.554688 5.175781 L 9.179688 5.019531 C 9.003906 3.636719 9.167969 1.132812 8.394531 0 Z M 8.394531 0 " fill-opacity="1" fill-rule="nonzero"/><path fill="#ff7000" d="M 10.433594 0.15625 L 9.335938 5.019531 L 9.964844 5.175781 L 10.90625 0.3125 Z M 10.433594 0.15625 " fill-opacity="1" fill-rule="nonzero"/><path fill="#ff7000" d="M 5.886719 0.785156 L 7.613281 5.332031 L 4.632812 1.726562 L 4.003906 1.882812 L 6.984375 5.960938 L 2.75 3.292969 L 2.59375 3.921875 L 6.828125 6.585938 L 7.613281 5.332031 L 8.394531 5.175781 L 6.515625 0.628906 Z M 5.886719 0.785156 " fill-opacity="1" fill-rule="nonzero"/><path fill="#ff7000" d="M 12.472656 0.785156 L 10.121094 5.332031 C 11.214844 5.496094 13.214844 1.628906 12.472656 0.785156 Z M 12.472656 0.785156 " fill-opacity="1" fill-rule="nonzero"/><path fill="#ff7000" d="M 10.90625 5.960938 C 12.316406 5.660156 14.019531 3.5 14.824219 2.351562 C 13.511719 2.242188 11.242188 4.753906 10.90625 5.960938 Z M 10.90625 5.960938 " fill-opacity="1" fill-rule="nonzero"/><g clip-path="url(#7e086a7640)"><path fill="#ff7000" d="M 1.808594 5.332031 L 1.652344 5.800781 C 2.980469 6.5 5.015625 7.144531 6.515625 7.214844 C 6.109375 6.046875 2.945312 5.566406 1.808594 5.332031 Z M 1.808594 5.332031 " fill-opacity="1" fill-rule="nonzero"/></g><g clip-path="url(#48b97be185)"><path fill="#ff7000" d="M 1.339844 7.527344 L 1.339844 8.15625 L 6.359375 8.15625 L 6.359375 7.527344 Z M 1.339844 7.527344 " fill-opacity="1" fill-rule="nonzero"/></g><g clip-path="url(#27b601a324)"><path fill="#ff7000" d="M 11.847656 8.15625 L 16.863281 7.996094 L 16.863281 7.683594 C 15.867188 7.390625 12.21875 7.027344 11.847656 8.15625 Z M 11.847656 8.15625 " fill-opacity="1" fill-rule="nonzero"/></g><g clip-path="url(#eeafbcd15c)"><path fill="#ff7000" d="M 11.6875 8.46875 C 12.097656 9.636719 15.257812 10.117188 16.394531 10.351562 L 16.550781 10.191406 L 16.550781 9.878906 C 15.214844 9.179688 13.195312 8.535156 11.6875 8.46875 Z M 11.6875 8.46875 " fill-opacity="1" fill-rule="nonzero"/></g><path fill="#ff7000" d="M 11.53125 9.09375 L 11.21875 9.722656 L 15.453125 12.390625 L 15.609375 11.761719 Z M 11.53125 9.09375 " fill-opacity="1" fill-rule="nonzero"/><path fill="#ff7000" d="M 3.535156 13.328125 L 3.691406 13.488281 L 7.457031 10.191406 C 6.445312 9.265625 3.957031 12.425781 3.535156 13.328125 Z M 3.535156 13.328125 " fill-opacity="1" fill-rule="nonzero"/><g clip-path="url(#19e10e11d8)"><path fill="#ff7000" d="M 11.6875 15.054688 L 12.316406 15.054688 L 10.589844 10.191406 L 10.75 10.191406 C 11.390625 11.441406 12.761719 13.347656 14.042969 13.957031 L 14.199219 13.800781 C 13.691406 12.660156 12.46875 11.03125 11.488281 10.25 C 11.066406 9.917969 10.273438 9.992188 10.074219 10.566406 C 9.722656 11.589844 11.398438 13.996094 11.6875 15.054688 Z M 11.6875 15.054688 " fill-opacity="1" fill-rule="nonzero"/></g><path fill="#ff7000" d="M 7.457031 10.191406 C 7.015625 11.246094 4.871094 13.972656 5.730469 14.898438 L 8.082031 10.351562 Z M 7.457031 10.191406 " fill-opacity="1" fill-rule="nonzero"/><g clip-path="url(#d8254a42d4)"><path fill="#ff7000" d="M 8.238281 10.507812 L 7.457031 15.523438 C 8.894531 15.105469 8.097656 11.773438 9.179688 10.820312 C 9.179688 11.824219 9.035156 15.207031 10.121094 15.523438 C 10.121094 14.515625 10.324219 11.554688 9.644531 10.792969 C 9.371094 10.484375 8.621094 10.546875 8.238281 10.507812 Z M 8.238281 10.507812 " fill-opacity="1" fill-rule="nonzero"/></g></svg>